<?xml version="1.0" encoding="UTF-8"?>
<svg xmlns="http://www.w3.org/2000/svg" viewBox="0 0 795.01 288.18">
  <defs>
    <style>
      .cls-1, .cls-2, .cls-3, .cls-4, .cls-5, .cls-6 {
        stroke-miterlimit: 10;
      }

      .cls-1, .cls-2, .cls-3, .cls-4, .cls-5, .cls-6, .cls-7 {
        fill: none;
      }

      .cls-1, .cls-2, .cls-6 {
        stroke: #231f20;
      }

      .cls-2, .cls-3 {
        stroke-width: 40px;
      }

      .cls-2, .cls-6 {
        opacity: .58;
      }

      .cls-3, .cls-4, .cls-5 {
        stroke: #fff;
      }

      .cls-4 {
        stroke-width: 17px;
      }

      .cls-5, .cls-6 {
        stroke-width: 20px;
      }

      .cls-8 {
        fill: #725fa9;
      }

      .cls-9 {
        fill: #fff;
        font-family: CenturyGothic, 'Century Gothic';
        font-size: 83.75px;
      }
    </style>
  </defs>
  <g id="Layer_5" data-name="Layer 5">
    <circle class="cls-8" cx="166.76" cy="144.09" r="126.97"/>
  </g>
  <g id="Layer_2" data-name="Layer 2">
    <circle class="cls-1" cx="166.76" cy="144.04" r="127.2"/>
    <circle class="cls-2" cx="166.02" cy="103.37" r="30.91"/>
    <circle class="cls-7" cx="166.02" cy="45.82" r="31.15" transform="translate(115.48 210.46) rotate(-88.36)"/>
    <circle class="cls-6" cx="166.02" cy="42.83" r="19.37"/>
    <circle class="cls-3" cx="227.84" cy="212.29" r="30.91"/>
    <circle class="cls-5" cx="227.84" cy="151.75" r="19.37"/>
    <circle class="cls-3" cx="100.98" cy="172.79" r="30.91"/>
    <rect class="cls-5" x="58.78" y="72.47" width="11.29" height="138.1"/>
    <circle class="cls-8" cx="227.84" cy="210.56" r="19.57"/>
    <rect class="cls-8" x="199.5" y="190.99" width="28.73" height="9.47"/>
    <rect class="cls-8" x="198.46" y="155.16" width="28.73" height="9.47"/>
    <circle class="cls-4" cx="166.76" cy="144.09" r="135.59"/>
    <text class="cls-9" transform="translate(323.3 180.35) scale(.95 1)"><tspan x="0" y="0">Fórmula b33</tspan></text>
  </g>
  <g id="Layer_3" data-name="Layer 3">
    <rect class="cls-8" x="111.72" y="49.7" width="43.41" height="46.28"/>
    <path class="cls-8" d="M191.85,154.57h27.87v51.55h-48v-31.42c0-11.11,9.02-20.13,20.13-20.13Z"/>
    <circle class="cls-8" cx="226.3" cy="153.29" r="11.34"/>
    <circle class="cls-3" cx="165.81" cy="102.92" r="30.91"/>
    <circle class="cls-5" cx="165.81" cy="42.37" r="19.37"/>
    <circle class="cls-8" cx="165.81" cy="101.19" r="19.57"/>
    <rect class="cls-8" x="137.47" y="81.61" width="28.73" height="9.47"/>
    <rect class="cls-8" x="136.43" y="45.79" width="28.73" height="9.47"/>
    <path class="cls-8" d="M129.82,45.2h27.87v51.55h-48v-31.42c0-11.11,9.02-20.13,20.13-20.13Z"/>
    <circle class="cls-8" cx="164.27" cy="43.92" r="11.34"/>
    <circle class="cls-8" cx="100.98" cy="172.79" r="19.57"/>
  </g>
</svg>